<?xml version="1.0" encoding="utf-8"?>
<svg viewBox="553.296 207.125 245.8979 53.181" xmlns="http://www.w3.org/2000/svg">
  <path d="M 553.296 209.727 L 576.929 209.727 L 576.929 216.606 L 576.18 216.606 C 574.683 216.606 573.727 216.665 573.311 216.784 C 572.895 216.903 572.545 217.153 572.259 217.533 C 571.974 217.913 571.831 218.305 571.831 218.709 C 571.831 219.208 572.105 220.23 572.651 221.775 L 581.455 246.548 L 590.83 221.133 C 591.282 219.874 591.507 219.006 591.507 218.531 C 591.507 217.866 591.288 217.379 590.848 217.07 C 590.408 216.761 589.464 216.606 588.014 216.606 L 586.481 216.606 L 586.481 209.727 L 605.729 209.727 L 605.729 216.606 C 604.137 216.606 603.068 216.784 602.521 217.141 C 601.69 217.688 600.858 219.018 600.026 221.133 L 585.127 259.451 L 573.934 259.451 L 558.786 220.884 C 558.168 219.339 557.693 218.353 557.36 217.925 C 557.028 217.498 556.558 217.165 555.952 216.927 C 555.346 216.69 554.461 216.583 553.296 216.606 L 553.296 209.727 Z M 601.512 209.727 L 627.782 209.727 C 631.109 209.727 633.871 210.066 636.069 210.743 C 638.267 211.42 640.157 212.448 641.737 213.826 C 643.317 215.204 644.535 216.838 645.39 218.727 C 646.246 220.616 646.673 222.618 646.673 224.733 C 646.673 228.987 645.04 232.552 641.772 235.427 C 638.505 238.302 633.996 239.74 628.245 239.74 L 619.762 239.74 L 619.762 249.043 C 619.762 250.207 619.845 250.944 620.011 251.253 C 620.225 251.704 620.552 252.037 620.992 252.251 C 621.432 252.465 622.174 252.572 623.219 252.572 L 625.75 252.572 L 625.75 259.451 L 601.512 259.451 L 601.512 252.572 L 603.187 252.572 C 604.661 252.572 605.635 252.465 606.11 252.251 C 606.586 252.037 606.93 251.698 607.144 251.235 C 607.358 250.772 607.464 249.815 607.464 248.366 L 607.464 221.026 C 607.464 219.505 607.369 218.501 607.179 218.014 C 606.989 217.527 606.686 217.171 606.27 216.945 C 605.855 216.719 605.065 216.606 603.9 216.606 L 601.512 216.606 L 601.512 209.727 Z M 619.762 217.854 L 619.762 231.969 L 624.003 231.969 C 626.594 231.969 628.495 231.702 629.707 231.167 C 630.919 230.632 631.893 229.813 632.629 228.708 C 633.366 227.603 633.734 226.29 633.734 224.769 C 633.734 222.488 632.855 220.682 631.097 219.351 C 629.79 218.353 627.853 217.854 625.287 217.854 L 619.762 217.854 Z M 679.82 209.727 L 684.097 226.409 L 677.468 228.298 C 675.258 224.329 672.751 221.424 669.947 219.583 C 667.143 217.741 664.161 216.82 661 216.82 C 658.956 216.82 657.346 217.236 656.17 218.068 C 654.994 218.899 654.406 219.826 654.406 220.848 C 654.406 222.013 654.941 223.094 656.01 224.092 C 657.056 225.09 658.98 225.981 661.784 226.765 L 671.337 229.545 C 676.636 231.066 680.414 233.086 682.672 235.605 C 684.906 238.148 686.022 241.106 686.022 244.48 C 686.022 248.781 684.311 252.417 680.889 255.388 C 677.064 258.667 672.312 260.306 666.632 260.306 C 663.994 260.306 661.57 259.968 659.36 259.291 C 657.15 258.614 654.845 257.479 652.445 255.887 L 650.877 259.451 L 645.566 259.451 L 642.037 240.167 L 648.702 238.563 C 650.271 242.484 652.713 245.758 656.027 248.383 C 659.343 251.009 662.984 252.322 666.952 252.322 C 668.735 252.322 670.214 252.096 671.39 251.645 C 672.567 251.194 673.452 250.564 674.046 249.756 C 674.64 248.948 674.937 248.116 674.937 247.261 C 674.937 245.835 674.248 244.611 672.869 243.589 C 671.467 242.567 669.02 241.557 665.527 240.559 L 657.221 238.136 C 655.962 237.779 654.257 237.108 652.107 236.122 C 649.957 235.135 648.305 234.107 647.152 233.038 C 646 231.969 645.043 230.596 644.283 228.921 C 643.523 227.246 643.142 225.482 643.142 223.628 C 643.142 220.991 643.873 218.561 645.334 216.339 C 646.796 214.117 648.994 212.317 651.928 210.939 C 654.863 209.56 658.113 208.871 661.677 208.871 C 665.979 208.871 669.864 209.988 673.333 212.222 L 674.723 209.727 L 679.82 209.727 Z M 700.206 207.125 L 700.206 226.908 C 702.559 225.482 704.638 224.478 706.444 223.896 C 708.25 223.313 709.997 223.022 711.684 223.022 C 713.942 223.022 715.955 223.503 717.725 224.466 C 719.496 225.428 720.797 226.634 721.628 228.084 C 722.46 229.533 722.876 231.47 722.876 233.894 L 722.876 248.758 C 722.876 250.207 722.936 251.086 723.054 251.395 C 723.244 251.847 723.601 252.18 724.124 252.393 C 724.433 252.512 725.276 252.572 726.654 252.572 L 728.33 252.572 L 728.33 259.451 L 707.371 259.451 L 707.371 252.572 L 708.44 252.572 C 709.462 252.572 710.163 252.477 710.543 252.286 C 710.923 252.096 711.185 251.829 711.327 251.484 C 711.47 251.14 711.541 250.303 711.541 248.972 L 711.541 236.674 C 711.541 235.058 711.44 233.983 711.238 233.448 C 711.036 232.913 710.674 232.474 710.151 232.129 C 709.629 231.785 708.975 231.613 708.19 231.613 C 707.074 231.613 705.903 231.839 704.679 232.29 C 703.456 232.741 701.965 233.573 700.206 234.785 L 700.206 248.972 C 700.206 250.326 700.278 251.169 700.42 251.502 C 700.563 251.835 700.836 252.096 701.24 252.286 C 701.644 252.477 702.405 252.572 703.521 252.572 L 704.305 252.572 L 704.305 259.451 L 683.56 259.451 L 683.56 252.572 L 685.556 252.572 C 686.721 252.572 687.464 252.495 687.784 252.34 C 688.105 252.185 688.349 251.924 688.515 251.556 C 688.681 251.187 688.764 250.457 688.764 249.364 L 688.764 217.07 L 683.56 217.07 L 683.56 210.155 C 685.533 210.036 687.749 209.697 690.208 209.139 C 692.668 208.58 694.883 207.909 696.855 207.125 L 700.206 207.125 Z M 747.297 237.886 L 747.297 235.248 C 747.297 233.68 747.167 232.599 746.905 232.005 C 746.644 231.411 746.169 230.918 745.479 230.525 C 744.791 230.133 743.935 229.937 742.913 229.937 C 742.129 229.937 741.416 230.068 740.774 230.329 C 740.133 230.591 739.622 230.924 739.242 231.327 C 738.862 231.731 738.422 232.515 737.923 233.68 C 737.281 235.153 736.515 236.211 735.624 236.852 C 734.733 237.494 733.681 237.815 732.469 237.815 C 730.949 237.815 729.701 237.34 728.726 236.389 C 727.752 235.438 727.265 234.262 727.265 232.86 C 727.265 231.268 727.764 229.854 728.762 228.618 C 730.093 226.979 732.077 225.636 734.715 224.591 C 737.353 223.545 740.323 223.022 743.626 223.022 C 746.929 223.022 749.739 223.557 752.056 224.626 C 754.373 225.695 755.989 226.973 756.903 228.458 C 757.819 229.943 758.276 232.207 758.276 235.248 L 758.276 248.009 C 758.276 249.578 758.359 250.582 758.525 251.021 C 758.692 251.46 759.049 251.847 759.595 252.18 C 760.141 252.513 760.747 252.679 761.413 252.679 C 762.079 252.679 762.97 252.489 764.086 252.108 L 764.086 259.059 C 762.066 259.7 760.13 260.021 758.276 260.021 C 756.09 260.021 754.224 259.665 752.68 258.952 C 751.136 258.239 749.84 257.17 748.794 255.744 C 746.418 257.289 744.262 258.388 742.325 259.041 C 740.389 259.694 738.517 260.021 736.711 260.021 C 733.313 260.021 730.569 259.065 728.477 257.152 C 726.386 255.239 725.34 252.881 725.34 250.076 C 725.34 248.484 725.703 247.023 726.427 245.692 C 727.153 244.361 728.234 243.197 729.671 242.199 C 731.109 241.201 733.331 240.316 736.337 239.544 C 739.343 238.771 742.997 238.219 747.297 237.886 Z M 747.297 243.803 C 744.185 244.254 741.987 244.712 740.703 245.175 C 739.42 245.638 738.505 246.221 737.958 246.922 C 737.412 247.623 737.139 248.341 737.139 249.078 C 737.139 250.029 737.496 250.825 738.208 251.467 C 738.921 252.108 739.883 252.429 741.095 252.429 C 741.879 252.429 742.788 252.227 743.822 251.823 C 744.856 251.419 746.014 250.825 747.297 250.041 L 747.297 243.803 Z M 774.707 207.125 L 774.707 226.337 C 776.679 225.102 778.432 224.24 779.964 223.753 C 781.497 223.266 783.036 223.022 784.58 223.022 C 788.62 223.022 791.959 224.495 794.596 227.442 C 797.662 230.864 799.194 235.427 799.194 241.13 C 799.194 246.904 797.656 251.544 794.578 255.049 C 791.501 258.554 787.776 260.306 783.404 260.306 C 781.622 260.306 779.911 260.009 778.271 259.415 C 776.632 258.821 774.921 257.835 773.138 256.457 L 771.213 259.451 L 763.372 259.451 L 763.372 217.034 L 758.168 217.034 L 758.168 210.119 C 762.849 209.786 767.197 208.788 771.213 207.125 L 774.707 207.125 Z M 774.707 234.072 L 774.707 244.908 C 774.707 247.094 774.879 248.597 775.223 249.417 C 775.568 250.237 776.174 250.92 777.041 251.467 C 777.909 252.013 778.925 252.286 780.089 252.286 C 782.061 252.286 783.63 251.478 784.794 249.863 C 786.268 247.843 787.004 245.051 787.004 241.486 C 787.004 238.135 786.375 235.545 785.115 233.716 C 784.093 232.243 782.751 231.506 781.087 231.506 C 780.161 231.506 779.169 231.72 778.111 232.147 C 777.053 232.575 775.919 233.217 774.707 234.072 Z" style="fill: black"/>
</svg>
